<?xml version="1.0" encoding="UTF-8" standalone="no"?>
<svg
   viewBox="0 0 16 16"
   fill="#8055FF"
   strok="none"
   version="1.1"
   id="svg27"
   sodipodi:docname="sun.svg"
   inkscape:version="1.1.1 (c3084ef, 2021-09-22)"
   xmlns:inkscape="http://www.inkscape.org/namespaces/inkscape"
   xmlns:sodipodi="http://sodipodi.sourceforge.net/DTD/sodipodi-0.dtd"
   xmlns="http://www.w3.org/2000/svg"
   xmlns:svg="http://www.w3.org/2000/svg">
  <defs
     id="defs31" />
  <sodipodi:namedview
     id="namedview29"
     pagecolor="#ffffff"
     bordercolor="#666666"
     borderopacity="1.0"
     inkscape:pageshadow="2"
     inkscape:pageopacity="0.0"
     inkscape:pagecheckerboard="0"
     showgrid="false"
     inkscape:zoom="52.9375"
     inkscape:cx="8"
     inkscape:cy="8"
     inkscape:window-width="1312"
     inkscape:window-height="1027"
     inkscape:window-x="0"
     inkscape:window-y="25"
     inkscape:window-maximized="0"
     inkscape:current-layer="svg27" />
  <path
     id="path25"
     d="M 14,3.5 V 2 H 12.5 L 11,3.5 12.5,5 Z M 3.5,14 H 2 V 12.5 L 3.5,11 5,12.5 Z M 2,3.5 V 2 H 3.5 L 5,3.5 3.5,5 Z M 12.5,14 H 14 V 12.5 L 12.5,11 11,12.5 Z M 7,1 8,0 9,1 V 3 H 7 Z m 0,14 1,1 1,-1 V 13 H 7 Z M 1,9 0,8 1,7 H 3 V 9 Z M 15,9 16,8 15,7 H 13 V 9 Z M 12,8 A 4,4 0 0 1 8,12 4,4 0 0 1 4,8 4,4 0 0 1 8,4 4,4 0 0 1 12,8 Z" />
</svg>
